<svg xmlns="http://www.w3.org/2000/svg" width="1200" height="720" viewBox="0 0 1200 720"><defs><marker id="a" markerWidth="10" markerHeight="10" refX="8" refY="3" orient="auto"><path d="M0,0 L0,6 L9,3 z" fill="#2563eb"/></marker></defs><rect width="100%" height="100%" rx="28" fill="#f6f8fb"/><text x="70" y="66" font-size="34" font-weight="800" fill="#102033" font-family="Inter,Arial">Porchlight architecture</text><rect x="70" y="120" width="220" height="110" rx="20" fill="#ffffff" stroke="#dbe3ec"/><text x="92" y="162" font-size="19" font-weight="700" fill="#102033" font-family="Inter,Arial">Edge runtime</text><text x="92" y="192" font-size="14" fill="#64748b" font-family="Inter,Arial">Capture · inference · event logic</text><rect x="380" y="120" width="220" height="110" rx="20" fill="#ffffff" stroke="#dbe3ec"/><text x="402" y="162" font-size="19" font-weight="700" fill="#102033" font-family="Inter,Arial">Local storage</text><text x="402" y="192" font-size="14" fill="#64748b" font-family="Inter,Arial">SQLite events + outbound queue</text><rect x="690" y="120" width="220" height="110" rx="20" fill="#ffffff" stroke="#dbe3ec"/><text x="712" y="162" font-size="19" font-weight="700" fill="#102033" font-family="Inter,Arial">Backend API</text><text x="712" y="192" font-size="14" fill="#64748b" font-family="Inter,Arial">FastAPI ingest + history</text><rect x="980" y="120" width="150" height="110" rx="20" fill="#ffffff" stroke="#dbe3ec"/><text x="1002" y="162" font-size="19" font-weight="700" fill="#102033" font-family="Inter,Arial">Dashboard</text><text x="1002" y="192" font-size="14" fill="#64748b" font-family="Inter,Arial">Review + health</text><rect x="70" y="410" width="220" height="110" rx="20" fill="#ffffff" stroke="#dbe3ec"/><text x="92" y="452" font-size="19" font-weight="700" fill="#102033" font-family="Inter,Arial">Replay / mock source</text><text x="92" y="482" font-size="14" fill="#64748b" font-family="Inter,Arial">Laptop demo without hardware</text><rect x="380" y="410" width="220" height="110" rx="20" fill="#ffffff" stroke="#dbe3ec"/><text x="402" y="452" font-size="19" font-weight="700" fill="#102033" font-family="Inter,Arial">Benchmark harness</text><text x="402" y="482" font-size="14" fill="#64748b" font-family="Inter,Arial">Latency · FPS · queue recovery</text><rect x="690" y="410" width="220" height="110" rx="20" fill="#ffffff" stroke="#dbe3ec"/><text x="712" y="452" font-size="19" font-weight="700" fill="#102033" font-family="Inter,Arial">Docs site</text><text x="712" y="482" font-size="14" fill="#64748b" font-family="Inter,Arial">GitHub Pages report viewer</text><line x1="290" y1="175" x2="380" y2="175" stroke="#2563eb" stroke-width="3" marker-end="url(#a)"/><line x1="600" y1="175" x2="690" y2="175" stroke="#2563eb" stroke-width="3" marker-end="url(#a)"/><line x1="910" y1="175" x2="980" y2="175" stroke="#2563eb" stroke-width="3" marker-end="url(#a)"/><line x1="180" y1="410" x2="180" y2="230" stroke="#2563eb" stroke-width="3" marker-end="url(#a)"/><line x1="490" y1="410" x2="490" y2="230" stroke="#2563eb" stroke-width="3" marker-end="url(#a)"/><line x1="800" y1="410" x2="800" y2="230" stroke="#2563eb" stroke-width="3" marker-end="url(#a)"/></svg>