<svg xmlns="http://www.w3.org/2000/svg" width="1200" height="720" viewBox="0 0 1200 720"><rect width="100%" height="100%" rx="28" fill="#f6f8fb"/><rect x="36" y="36" width="1128" height="652" rx="26" fill="#ffffff" stroke="#dbe3ec"/><text x="72" y="92" font-size="30" font-weight="800" fill="#102033" font-family="Inter,Arial">Porchlight console</text><rect x="72" y="130" width="235" height="126" rx="18" fill="#f8fafc" stroke="#dbe3ec"/><text x="92" y="168" font-size="14" font-weight="700" fill="#64748b" font-family="Inter,Arial">Replay FPS</text><text x="92" y="216" font-size="30" font-weight="800" fill="#102033" font-family="Inter,Arial">17629.16</text><rect x="342" y="130" width="235" height="126" rx="18" fill="#f8fafc" stroke="#dbe3ec"/><text x="362" y="168" font-size="14" font-weight="700" fill="#64748b" font-family="Inter,Arial">Meaningful</text><text x="362" y="216" font-size="30" font-weight="800" fill="#102033" font-family="Inter,Arial">5</text><rect x="612" y="130" width="235" height="126" rx="18" fill="#f8fafc" stroke="#dbe3ec"/><text x="632" y="168" font-size="14" font-weight="700" fill="#64748b" font-family="Inter,Arial">Suppressed</text><text x="632" y="216" font-size="30" font-weight="800" fill="#102033" font-family="Inter,Arial">10</text><rect x="882" y="130" width="235" height="126" rx="18" fill="#f8fafc" stroke="#dbe3ec"/><text x="902" y="168" font-size="14" font-weight="700" fill="#64748b" font-family="Inter,Arial">P95 latency</text><text x="902" y="216" font-size="30" font-weight="800" fill="#102033" font-family="Inter,Arial">0.0001 ms</text><text x="72" y="316" font-size="22" font-weight="800" fill="#102033" font-family="Inter,Arial">Event timeline</text><rect x="72" y="346" width="980" height="56" rx="14" fill="#ffffff" stroke="#e5edf5"/><text x="96" y="370" font-size="14" font-weight="800" fill="#2563eb" font-family="Inter,Arial">person_at_door</text><text x="96" y="390" font-size="13" fill="#64748b" font-family="Inter,Arial">Person detected in entry zone with stable confidence</text><rect x="72" y="420" width="980" height="56" rx="14" fill="#ffffff" stroke="#e5edf5"/><text x="96" y="444" font-size="14" font-weight="800" fill="#2563eb" font-family="Inter,Arial">visitor_linger</text><text x="96" y="464" font-size="13" fill="#64748b" font-family="Inter,Arial">Person remained near entry beyond linger threshold</text><rect x="72" y="494" width="980" height="56" rx="14" fill="#ffffff" stroke="#e5edf5"/><text x="96" y="518" font-size="14" font-weight="800" fill="#2563eb" font-family="Inter,Arial">package_delivered</text><text x="96" y="538" font-size="13" fill="#64748b" font-family="Inter,Arial">Package entered configured package zone</text><rect x="72" y="568" width="980" height="56" rx="14" fill="#ffffff" stroke="#e5edf5"/><text x="96" y="592" font-size="14" font-weight="800" fill="#2563eb" font-family="Inter,Arial">motion_without_detection_suppressed</text><text x="96" y="612" font-size="13" fill="#64748b" font-family="Inter,Arial">Motion-only event stored as suppressed decision</text></svg>