<svg xmlns="http://www.w3.org/2000/svg" width="1200" height="720" viewBox="0 0 1200 720"><defs><marker id="a" markerWidth="10" markerHeight="10" refX="8" refY="3" orient="auto"><path d="M0,0 L0,6 L9,3 z" fill="#2563eb"/></marker></defs><rect width="100%" height="100%" rx="28" fill="#ffffff"/><text x="60" y="70" font-size="32" font-weight="800" fill="#102033" font-family="Inter,Arial">Event decision flow</text><rect x="60" y="140" width="220" height="110" rx="20" fill="#f8fafc" stroke="#dbe3ec"/><text x="82" y="200" font-size="18" font-weight="700" fill="#102033" font-family="Inter,Arial">Frame capture</text><line x1="280" y1="195" x2="340" y2="195" stroke="#2563eb" stroke-width="3" marker-end="url(#a)"/><rect x="340" y="140" width="220" height="110" rx="20" fill="#f8fafc" stroke="#dbe3ec"/><text x="362" y="200" font-size="18" font-weight="700" fill="#102033" font-family="Inter,Arial">Motion gate</text><line x1="560" y1="195" x2="620" y2="195" stroke="#2563eb" stroke-width="3" marker-end="url(#a)"/><rect x="620" y="140" width="220" height="110" rx="20" fill="#f8fafc" stroke="#dbe3ec"/><text x="642" y="200" font-size="18" font-weight="700" fill="#102033" font-family="Inter,Arial">Inference backend</text><line x1="840" y1="195" x2="900" y2="195" stroke="#2563eb" stroke-width="3" marker-end="url(#a)"/><rect x="900" y="140" width="220" height="110" rx="20" fill="#f8fafc" stroke="#dbe3ec"/><text x="922" y="200" font-size="18" font-weight="700" fill="#102033" font-family="Inter,Arial">Temporal smoothing</text><line x1="1010" y1="250" x2="170" y2="360" stroke="#2563eb" stroke-width="3" marker-end="url(#a)"/><rect x="60" y="360" width="220" height="110" rx="20" fill="#f8fafc" stroke="#dbe3ec"/><text x="82" y="420" font-size="18" font-weight="700" fill="#102033" font-family="Inter,Arial">Suppression policy</text><line x1="280" y1="415" x2="340" y2="415" stroke="#2563eb" stroke-width="3" marker-end="url(#a)"/><rect x="340" y="360" width="220" height="110" rx="20" fill="#f8fafc" stroke="#dbe3ec"/><text x="362" y="420" font-size="18" font-weight="700" fill="#102033" font-family="Inter,Arial">SQLite queue</text><line x1="560" y1="415" x2="620" y2="415" stroke="#2563eb" stroke-width="3" marker-end="url(#a)"/><rect x="620" y="360" width="220" height="110" rx="20" fill="#f8fafc" stroke="#dbe3ec"/><text x="642" y="420" font-size="18" font-weight="700" fill="#102033" font-family="Inter,Arial">Backend ingest</text><line x1="840" y1="415" x2="900" y2="415" stroke="#2563eb" stroke-width="3" marker-end="url(#a)"/><rect x="900" y="360" width="220" height="110" rx="20" fill="#f8fafc" stroke="#dbe3ec"/><text x="922" y="420" font-size="18" font-weight="700" fill="#102033" font-family="Inter,Arial">Dashboard</text></svg>